<?xml version="1.0" encoding="UTF-8"?><svg id="_圖層_2" xmlns="http://www.w3.org/2000/svg" viewBox="0 0 984.36 213.04"><defs><style>.cls-1{font-family:MiSans-Semibold, MiSans;font-size:104.52px;font-weight:700;}.cls-1,.cls-2{fill:#fff;}.cls-3{fill:#0fd1d2;}</style></defs><g id="Object"><rect class="cls-3" width="984.36" height="213.04"/><path class="cls-2" d="M170.46,152.11s-41.82-12.11-41.82-41.82c0-29.71-41.82-41.82-41.82-41.82l-29.39,7.88s52.58,15.22,52.58,52.58c0,37.36,52.58,52.58,52.58,52.58l7.88-29.39Z"/><path class="cls-2" d="M200.77,36.86l-106.5,28.54s39.56,13.62,38.98,38.98c20.83-19.13,67.52-67.52,67.52-67.52Z"/><path class="cls-2" d="M201.71,42.32c-8.19,8.06-43.11,42.61-67.15,66.4,.22,27.53,38.97,38.75,38.97,38.75l28.17-105.15h0Z"/><text class="cls-1" transform="translate(257.78 149.18)"><tspan x="0" y="0">社區成長學苑</tspan></text></g></svg>